<svg xmlns="http://www.w3.org/2000/svg" width="58" height="58" viewBox="0 0 58 58">
    <g fill="none" fill-rule="evenodd" transform="translate(1 1)">
        <circle cx="28" cy="28" r="28" fill="#323532" stroke="#BFC0BB"/>
        <path fill="#FFF" fill-rule="nonzero" d="M25.815 30.778l-7.519-4.37a.772.772 0 0 0-.9 0l-7.583 4.37c-.257.128-.45.45-.45.77v8.29c0 .322.193.58.45.772l7.583 4.434c.065.065.129.065.193.065s.193.064.257.064c.129 0 .322-.064.45-.129l7.519-4.434c.257-.128.45-.45.45-.771v-8.29c0-.321-.193-.579-.45-.771zm-7.969-2.57l5.72 3.34-5.784 3.214-5.72-3.213 5.784-3.342zm-6.683 4.883l5.784 3.213v6.298l-5.784-3.406v-6.105zm7.583 9.576v-6.363l5.72-3.149v6.17l-5.72 3.342zM46.187 30.65l-7.52-4.37a.772.772 0 0 0-.899 0l-7.583 4.37c-.064 0-.064.063-.129.063-.192.129-.32.386-.32.707v8.29c0 .322.192.579.449.772l7.583 4.434c.129.064.321.128.45.128s.321-.064.45-.128l7.519-4.434c.257-.129.45-.45.45-.772v-8.29c0-.321-.193-.578-.45-.77zm-7.969-2.571l5.591 3.277-5.655 3.149-5.656-3.149 5.72-3.277zm-6.683 4.82l5.783 3.213v6.426l-5.783-3.406v-6.234zm7.583 9.639v-6.49l5.72-3.15v6.234l-5.72 3.406zM36.419 22.937v-8.29c0-.32-.193-.578-.45-.77l-7.52-4.37a.772.772 0 0 0-.899 0l-7.583 4.37c-.257.128-.45.45-.45.77v8.29c0 .322.193.579.45.772l7.583 4.434c.129.064.321.128.45.128s.321-.064.45-.128l7.519-4.434c.257-.129.45-.45.45-.772zM28 11.306l5.655 3.277-5.784 3.15-5.59-3.15L28 11.306zm-6.683 4.884l5.783 3.213v6.362l-5.783-3.342V16.19zm7.583 9.575V19.34l5.72-3.15v6.234l-5.72 3.342z"/>
    </g>
</svg>
