<svg xmlns="http://www.w3.org/2000/svg" width="58" height="58" viewBox="0 0 58 58">
    <g fill="none" fill-rule="evenodd" transform="translate(1 1)">
        <circle cx="28" cy="28" r="28" fill="#373737" stroke="#BFC0BB"/>
        <path fill="#FFF" fill-rule="nonzero" d="M11 33.152l.773.772 2.575 2.576.773.773.773-.773a2.534 2.534 0 0 1 3.606 0 2.534 2.534 0 0 1 0 3.606l-.773.773.773.773 2.576 2.575.773.773.772-.773 20.606-20.606.773-.773-.773-.772-2.575-2.576-.773-.773-.773.773a2.533 2.533 0 0 1-3.606 0 2.534 2.534 0 0 1 0-3.606l.773-.773-.773-.773-2.576-2.575-.772-.773-.773.773-20.606 20.606-.773.773zm3.09 0l13.395-13.394.773.772 1.545-1.545-.773-.773 4.122-4.121 1.126 1.127c-1.118 1.823-.898 4.253.677 5.827 1.574 1.575 3.996 1.787 5.82.669l1.134 1.134-4.121 4.122-.773-.773-1.545 1.545.772.773L22.85 41.91l-1.135-1.135c1.118-1.823.906-4.245-.669-5.82-1.574-1.573-4.004-1.794-5.827-.676l-1.127-1.126zM29.289 21.56l2.06 2.06 1.546-1.545-2.06-2.06-1.546 1.545zm3.09 3.09l2.061 2.061 1.546-1.545-2.06-2.06-1.546 1.545z"/>
    </g>
</svg>
