<svg xmlns="http://www.w3.org/2000/svg" width="58" height="58" viewBox="0 0 58 58">
    <g fill="none" fill-rule="evenodd">
        <circle cx="29" cy="29" r="28" fill="#373737" stroke="#BFC0BB"/>
        <g fill="#FFF" fill-rule="nonzero">
            <path d="M30.432 27.473V22.38c1.18.34 2.293.95 3.21 1.901l1.965-2.512c-1.31-1.357-3.013-2.24-5.044-2.58v-3.122h-.655V16h-2.292v3.055c-3.668.34-5.961 2.715-5.961 5.702 0 3.802 3.013 4.888 5.96 5.635v5.702a8.006 8.006 0 0 1-4.715-2.648L21 36.094c1.507 1.63 3.668 2.851 6.616 3.055V42H30.498v-2.92C34.297 38.47 36 36.027 36 33.176c0-3.666-2.751-4.888-5.568-5.702zm-2.882-.815c-1.506-.407-2.554-1.018-2.554-2.172 0-1.29.982-2.173 2.554-2.376v4.548zm2.948 9.368v-4.752c1.244.475 2.096 1.086 2.096 2.24 0 1.019-.59 2.105-2.096 2.512zM28.476 11.016c-10.208 0-18.493 7.401-18.493 16.517v.822A1.524 1.524 0 0 1 8.59 30h-.067C7.73 30 7.066 29.383 7 28.56v-.959C7 16.773 16.611 8 28.476 8 29.337 8 30 8.685 30 9.576s-.73 1.44-1.524 1.44z"/>
        </g>
    </g>
</svg>
