<svg xmlns="http://www.w3.org/2000/svg" width="122" height="122" viewBox="0 0 122 122">
    <g fill="none" fill-rule="evenodd">
        <circle cx="61" cy="61" r="46.5" fill="#1E90FF" stroke="#FFF"/>
        <circle cx="61" cy="61" r="60.5" stroke="#77B5F2"/>
        <text fill="#83C2FF" font-family="Borda-Regular3, Borda" font-size="12">
            <tspan x="39" y="98">REDEEM</tspan>
        </text>
        <path fill="#FFF" fill-rule="nonzero" d="M52 30v2.7H36.7V48H34V30h18zm33.3 36H88v18H70v-2.7h15.3V66zM36.7 81.3H52V84H34V66h2.7v15.3zM70 30h18v18h-2.7V32.7H70V30zm-27 9h3.375v36H43V39zm6.75 0h5.625v36H49.75V39zm9 0h3.375v36H58.75V39zm6.75 0h3.375v36H65.5V39zm6.75 0H79v36h-6.75V39z"/>
    </g>
</svg>
