<svg xmlns="http://www.w3.org/2000/svg" width="58" height="58" viewBox="0 0 58 58">
    <g fill="none" fill-rule="evenodd">
        <circle cx="29" cy="29" r="28" fill="#323532" stroke="#BFC0BB"/>
        <g fill="#FFF" fill-rule="nonzero">
            <path d="M7.224 30.54V40.296l7.392 2.873 7.391-2.873v-9.758l-7.391-2.872-7.392 2.872zm1.347 1.978l5.371 2.087v6.858l-5.37-2.087v-6.858zm12.09 6.858l-5.372 2.087v-6.858l5.371-2.087v6.858zm-6.024-5.962h-.043L9.07 31.267l5.546-2.155 5.545 2.155-5.524 2.147zM43.384 27.666l-7.391 2.873v9.758l7.391 2.872 7.392-2.872V30.54l-7.392-2.873zm-6.044 4.852l5.37 2.087v6.858l-5.37-2.087v-6.858zm12.089 6.858l-5.372 2.087v-6.858l5.372-2.087v6.858zm-6.023-5.962h-.044l-5.523-2.147 5.545-2.155 5.545 2.155-5.523 2.147zM36.823 18.073V8.315l-7.391-2.873-7.391 2.872v9.759l7.39 2.872 7.392-2.872zm-1.346-.921l-5.372 2.087V12.38l5.372-2.088v6.859zM29.432 6.887l5.545 2.156-5.524 2.146h-.043l-5.523-2.146 5.545-2.156zm-6.044 3.406l5.37 2.088v6.858l-5.37-2.087v-6.859zM23.829 34.675h1.347v1.347h-1.347zM31.91 34.675h1.347v1.347H31.91zM29.217 34.675h1.346v1.347h-1.346zM26.523 34.675h1.347v1.347h-1.347zM20.048 26.51l.952.953-.952.953-.953-.953zM24.81 21.75l.952-.953.952.953-.952.952zM23.858 22.701l.952.953-.952.952-.953-.952zM21.952 26.512l-.953-.953.953-.952.952.952zM40.476 27.464l-.952.952-.953-.952.953-.952zM34.761 23.655l.953-.953.952.953-.952.952zM38.572 25.56l-.952.952-.953-.953.953-.952zM32.857 21.75l.953-.953.952.952-.952.953z"/>
        </g>
    </g>
</svg>
